<?xml version="1.0" encoding="utf-8"?>
<!-- Generator: Adobe Illustrator 18.1.1, SVG Export Plug-In . SVG Version: 6.00 Build 0)  -->
<svg version="1.1" width="30" height="30" xmlns="http://www.w3.org/2000/svg" xmlns:xlink="http://www.w3.org/1999/xlink" x="0px" y="0px" viewBox="0 0 48 48" enable-background="new 0 0 48 48" xml:space="preserve">
	<rect x="6" y="6" fill="#455A64" width="36" height="30" />
	<polygon fill="#546E7A" points="6,36 6,6 12,12 36,30 42,36 42,6 35,13 12,30 " />
	<rect x="9" y="9" fill="#263238" width="30" height="24" />
	<circle fill="#B39DDB" cx="19.5" cy="15.5" r="3.5" />
	<path fill="#B39DDB" d="M18.1,21.3l10.5-5l1.8-7c0.3-0.9,1.2-1.4,2.1-1.2l0,0c0.9,0.3,1.5,1.2,1.4,2.3l-1.7,7.4
	c-0.2,0.8-0.8,1.5-1.5,1.8l-4.9,2.7l2.7,6.3l7.1,4.4h-6.5l2,2.9c0.6,0.8,0.6,1.8,0.3,2.7l-2.7,6.9C28.5,46.4,27.8,47,27,47l0,0
	c-1.4,0-2.3-1.2-1.8-2.6l2.5-6.5l-4.1-3.2c-1.2-0.9-2.3-2.3-2.9-3.7l-2-4.6L14.6,35c-0.5,0.9-1.4,1.2-2.3,0.9l0,0
	c-1.1-0.3-1.5-1.5-1.1-2.4l4.9-10C16.6,22.4,17.3,21.6,18.1,21.3z" />
</svg>