<svg id="Capa_1" enable-background="new 0 0 512 512" height="30" viewBox="0 0 512 512" width="30" xmlns="http://www.w3.org/2000/svg">
    <g>
        <g>
            <path d="m223.128 450.118h-.103c-75.81 0-137.265-61.456-137.265-137.265v-139.558h274.634v139.557c0 75.81-61.456 137.266-137.266 137.266z" fill="#ffa68d" />
        </g>
        <g>
            <path d="m309.514 173.295v121.727c0 75.838-61.479 137.317-137.317 137.317-6.445 0-12.784-.455-18.993-1.314 20.471 12.125 44.356 19.093 69.872 19.093 75.838 0 137.317-61.479 137.317-137.317v-139.506z" fill="#f59380" />
        </g>
        <g>
            <path d="m94.366 272.957c6.417 19.732 13.002 39.926-3.828 45.399s-38.41-14.493-44.826-34.225 2.026-40.165 18.856-45.638 23.382 14.732 29.798 34.464z" fill="#ffa68d" />
        </g>
        <g>
            <path d="m351.787 272.957c-6.417 19.732-13.002 39.926 3.828 45.399 16.831 5.473 38.41-14.493 44.826-34.225 6.417-19.732-2.026-40.165-18.856-45.638s-23.381 14.732-29.798 34.464z" fill="#ffa68d" />
        </g>
        <g>
            <path d="m351.787 272.957c-6.417 19.732-13.002 39.926 3.828 45.399 16.831 5.473 38.41-14.493 44.826-34.225 6.417-19.732-2.026-40.165-18.856-45.638s-23.381 14.732-29.798 34.464z" fill="#f59380" />
        </g>
        <g>
            <path d="m286.302 217.691c-18.79 0-35.82 6.398-48.26 16.773-8.628 7.196-21.303 7.196-29.931 0-12.44-10.375-29.47-16.773-48.26-16.773-38.113 0-69.01 26.31-69.01 58.766s30.897 58.766 69.01 58.766c18.79 0 35.82-6.398 48.26-16.773 8.628-7.196 21.303-7.196 29.931 0 12.44 10.375 29.47 16.773 48.26 16.773 38.113 0 69.01-26.31 69.01-58.766s-30.897-58.766-69.01-58.766z" fill="#766e6e" />
        </g>
        <g>
            <g>
                <path d="m286.302 217.691c-3.81 0-7.543.276-11.185.782 32.785 4.557 57.812 28.777 57.812 57.984s-25.026 53.427-57.812 57.984c3.642.506 7.375.782 11.185.782 38.113 0 69.01-26.31 69.01-58.766s-30.897-58.766-69.01-58.766z" fill="#5b5353" />
            </g>
        </g>
        <g>
            <ellipse cx="287.702" cy="276.458" fill="#ffa68d" rx="29.404" ry="24.974" />
        </g>
        <g>
            <circle cx="287.702" cy="276.744" fill="#c56e37" r="8.907" />
        </g>
        <g>
            <ellipse cx="158.451" cy="276.458" fill="#ffa68d" rx="29.404" ry="24.974" />
        </g>
        <g>
            <path d="m294.813 252.223c5.202 4.505 8.413 10.674 8.413 17.482 0 13.793-13.165 24.974-29.404 24.974-2.453 0-4.833-.259-7.111-.74 5.336 4.622 12.767 7.492 20.991 7.492 16.239 0 29.404-11.181 29.404-24.974.001-11.709-9.49-21.532-22.293-24.234z" fill="#f59380" />
        </g>
        <g>
            <path d="m165.562 252.223c5.202 4.505 8.413 10.674 8.413 17.482 0 13.793-13.165 24.974-29.404 24.974-2.453 0-4.833-.259-7.111-.74 5.336 4.622 12.767 7.492 20.991 7.492 16.239 0 29.404-11.181 29.404-24.974 0-11.709-9.49-21.532-22.293-24.234z" fill="#f59380" />
        </g>
        <g>
            <circle cx="158.451" cy="276.744" fill="#c56e37" r="8.907" />
        </g>
        <g>
            <g>
                <path d="m223.077 56.307c-4.144 0-7.503-3.359-7.503-7.503v-41.301c0-4.144 3.359-7.503 7.503-7.503s7.503 3.359 7.503 7.503v41.301c0 4.144-3.36 7.503-7.503 7.503z" fill="#766e6e" />
            </g>
            <g>
                <path d="m367.722 165.705c-6.282-74.383-68.637-132.797-144.645-132.797s-138.363 58.414-144.645 132.797z" fill="#766e6e" />
            </g>
            <g>
                <path d="m223.077 32.908c-11.367 0-22.426 1.316-33.04 3.787 60.36 14.052 106.262 65.752 111.604 129.01h66.081c-6.283-74.383-68.638-132.797-144.645-132.797z" fill="#5b5353" />
            </g>
            <g>
                <path d="m389.543 219.918h-332.932c-4.922 0-8.911-3.99-8.911-8.911v-76.004c0-4.922 3.99-8.911 8.911-8.911h332.932c4.922 0 8.911 3.99 8.911 8.911v76.004c0 4.921-3.99 8.911-8.911 8.911z" fill="#766e6e" />
            </g>
            <g>
                <path d="m389.828 126.091h-39.447v37.128c0 4.764-3.862 8.626-8.626 8.626h-294.056v39.447c0 4.764 3.862 8.626 8.626 8.626h333.503c4.764 0 8.626-3.862 8.626-8.626v-76.574c0-4.765-3.862-8.627-8.626-8.627z" fill="#5b5353" />
            </g>
        </g>
        <g>
            <path d="m255.289 378.721c-2.055 0-4.102-.839-5.583-2.488-5.13-5.709-15.583-9.399-26.63-9.399-11.046 0-21.499 3.689-26.629 9.399-2.769 3.083-7.513 3.337-10.595.566-3.082-2.77-3.336-7.513-.566-10.595 8.088-9.001 22.215-14.375 37.79-14.375 15.576 0 29.703 5.374 37.791 14.375 2.77 3.082 2.516 7.826-.566 10.595-1.433 1.288-3.225 1.922-5.012 1.922z" fill="#da4a54" />
        </g>
        <g>
            <g>
                <path d="m347.797 364.122c-3.446 0-6.55-2.389-7.321-5.893-.889-4.047 1.67-8.049 5.716-8.939l46.895-10.311c5.814-1.278 10.034-6.527 10.034-12.48v-8.339c0-4.144 3.359-7.503 7.503-7.503s7.503 3.359 7.503 7.503v8.339c0 12.943-9.175 24.355-21.817 27.136l-46.895 10.311c-.542.119-1.084.176-1.618.176z" fill="#ffc50d" />
            </g>
            <g>
                <path d="m415.479 445.228c0 36.877-29.895 66.772-66.772 66.772s-66.772-29.895-66.772-66.772c0-27.069 35.976-63.972 55.113-81.689 6.585-6.096 16.733-6.096 23.318 0 19.137 17.717 55.113 54.62 55.113 81.689z" fill="#c9beb9" />
            </g>
            <g>
                <path d="m360.366 363.539c-4.383-4.057-10.34-5.398-15.778-4.055 17.918 19.006 37.4 44.245 37.4 64.165 0 36.877-29.895 66.772-66.772 66.772-6.153 0-12.104-.849-17.761-2.407 12.247 14.657 30.657 23.986 51.252 23.986 36.877 0 66.772-29.895 66.772-66.772 0-27.069-35.976-63.972-55.113-81.689z" fill="#9e9595" />
            </g>
            <g>
                <path d="m318.199 317.46c0-4.544 5.475-6.89 8.727-3.716 1.601 1.562 3.439 2.876 6.528 2.876 7.627 0 7.627-8.003 15.255-8.003 7.626 0 7.626 8.003 15.253 8.003 3.088 0 4.925-1.312 6.525-2.874 3.252-3.174 8.727-.828 8.727 3.716 0 6.576-2.221 12.96-6.302 18.117l-24.205 30.583-24.205-30.583c-4.081-5.157-6.302-11.541-6.302-18.117v-.002z" fill="#c9beb9" />
            </g>
            <g>
                <g>
                    <path d="m370.487 313.746c-1.403 1.369-2.989 2.546-5.439 2.815.049.29.08.589.08.901 0 6.577-2.221 12.96-6.302 18.117l-17.162 21.684 7.043 8.899 24.205-30.583c4.081-5.157 6.302-11.541 6.302-18.117 0-4.545-5.475-6.891-8.727-3.716z" fill="#9e9595" />
                </g>
            </g>
            <g>
                <path d="m433.366 382.526c-9.325 0-18.092-3.632-24.685-10.225-3.76-3.76-8.759-5.83-14.076-5.83h-39.293c-4.144 0-7.503-3.359-7.503-7.503s3.359-7.503 7.503-7.503h39.293c9.325 0 18.092 3.632 24.686 10.225 3.759 3.76 8.758 5.83 14.075 5.83 5.316 0 10.315-2.071 14.075-5.83l8.188-8.188c2.93-2.93 7.681-2.93 10.61 0 2.93 2.93 2.93 7.681 0 10.61l-8.188 8.188c-6.594 6.594-15.361 10.226-24.685 10.226z" fill="#ffe541" />
            </g>
            <g>
                <path d="m356.226 367.161h-15.702c-4.418 0-7.999-3.581-7.999-7.999v-1.496c0-4.418 3.581-7.999 7.999-7.999h15.702c4.418 0 7.999 3.581 7.999 7.999v1.496c0 4.418-3.582 7.999-7.999 7.999z" fill="#ffe541" />
            </g>
            <g>
                <path d="m356.223 349.667h-.828v.662c0 4.419-3.583 8.002-8.002 8.002h-14.869v.828c0 4.419 3.583 8.002 8.002 8.002h15.696c4.42 0 8.002-3.583 8.002-8.002v-1.49c.001-4.419-3.582-8.002-8.001-8.002z" fill="#ffc50d" />
            </g>
            <path d="m358.544 432.555c-.964-.341-1.943-.693-2.925-1.054v-19.206c1.341.626 2.179 1.281 2.474 1.475.8.524 1.515.771 1.515.771 5.677 1.748 10.844-3.86 8.978-9.499-.502-1.517-1.484-2.821-2.797-3.731-2.46-1.705-5.948-3.416-10.17-4.335v-2.975c0-4.074-3.303-7.377-7.377-7.377s-7.377 3.303-7.377 7.377v3.475c-.215.06-.426.106-.643.171-8.069 2.43-14.093 9.31-15.722 17.953-1.499 7.956 1.101 15.669 6.786 20.128 2.519 1.976 5.567 3.79 9.579 5.66v26.211c-2.412-.484-4.445-1.473-7.465-3.449-3.657-2.393-8.653-1.119-10.659 2.917-1.679 3.377-.371 7.514 2.793 9.567 5.788 3.756 10.097 5.291 15.331 5.856v3.352c0 4.074 3.303 7.377 7.377 7.377s7.377-3.303 7.377-7.377v-4.076c10.884-3.039 17.856-12.453 19.418-21.743 2.054-12.216-4.574-23.254-16.493-27.468zm-18.152-8.435c-1.294-1.015-1.853-3.341-1.392-5.787.14-.742.597-2.539 1.866-4.118v10.257c-.16-.117-.324-.234-.474-.352zm20.096 33.458c-.491 2.923-2.141 5.976-4.869 8.024v-18.245c5.39 2.913 5.242 8.002 4.869 10.221z" fill="#5b5353" />
        </g>
    </g>
</svg>